<?xml version="1.0" standalone="no"?><!DOCTYPE svg PUBLIC "-//W3C//DTD SVG 1.1//EN" "http://www.w3.org/Graphics/SVG/1.1/DTD/svg11.dtd"><svg t="1671250698924" class="icon" viewBox="0 0 1024 1024" version="1.1" xmlns="http://www.w3.org/2000/svg" p-id="9845" xmlns:xlink="http://www.w3.org/1999/xlink" width="200" height="200"><path d="M933.376 631.808c-13.312-32.256-32.768-61.44-57.344-86.016-24.576-24.576-53.76-44.032-86.016-57.344-31.744-13.312-65.024-19.968-99.328-19.968 35.328-34.304 60.416-77.312 71.68-125.44 12.288-50.688 8.704-103.424-10.24-152.064s-51.2-90.112-94.72-119.808C614.912 41.472 564.224 25.6 512 25.6s-102.4 15.872-145.92 45.056C323.072 100.352 290.304 141.824 271.36 190.464c-18.944 48.64-22.016 101.376-10.24 152.064 11.264 48.128 36.352 91.136 71.68 125.44-34.304 0.512-67.584 7.168-99.328 19.968-32.256 13.312-61.44 32.768-86.016 57.344-24.576 24.576-44.032 53.76-57.344 86.016s-19.968 66.56-19.968 101.376v160.768c0 27.648 10.752 54.272 30.72 73.728 19.456 19.456 46.08 30.72 73.728 30.72h674.816c27.648 0 54.272-10.752 73.728-30.72 19.456-19.456 30.72-46.08 30.72-73.728v-160.768c0-34.304-7.168-68.608-20.48-100.864zM326.656 283.136c0-102.4 82.944-185.344 185.344-185.344 102.4 0 185.344 82.944 185.344 185.344 0 102.4-82.944 185.344-185.344 185.344-102.4-0.512-185.344-83.456-185.344-185.344z m8.704 257.024h353.28c51.712 0 99.84 19.968 136.704 56.32 36.352 36.352 56.32 84.992 56.32 136.704v160.768c0 17.92-14.336 32.256-32.256 32.256H174.592c-17.92 0-32.256-14.336-32.256-32.256v-160.768c0-51.712 19.968-99.84 56.32-136.704 36.864-35.84 84.992-56.32 136.704-56.32z" p-id="9846"></path><path d="M683.008 728.576c-1.536-20.48-18.944-36.352-39.424-36.352H380.416l-6.144 0.512H373.76c-19.968 3.072-34.304 22.016-32.768 41.984 1.536 20.48 18.944 36.352 39.424 36.352h263.68l6.144-0.512h0.512c19.456-3.072 33.792-22.016 32.256-41.984z" fill="#0084FF" p-id="9847"></path></svg>