<svg t="1644384815680" class="icon" viewBox="0 0 1024 1024" version="1.1" xmlns="http://www.w3.org/2000/svg"
  p-id="12522" width="128" height="128">
  <path
    d="M720.896 998.4H303.104C218.112 998.4 148.48 929.28 148.48 843.776V366.592c0-19.456 15.36-34.816 34.816-34.816s34.816 15.36 34.816 34.816v477.184c0 46.592 37.888 84.992 84.992 84.992h417.28c46.592 0 84.992-37.888 84.992-84.992V366.592c0-19.456 15.36-34.816 34.816-34.816s34.816 15.36 34.816 34.816v477.184c0 85.504-69.12 154.624-154.112 154.624zM907.264 257.024H116.736c-19.456 0-34.816-15.36-34.816-34.816s15.36-34.816 34.816-34.816h791.04c19.456 0 34.816 15.36 34.816 34.816s-15.872 34.816-35.328 34.816z"
    p-id="12523"></path>
  <path
    d="M247.808 257.024c-2.048 0-4.608 0-6.656-0.512-18.944-3.584-31.232-22.016-27.136-40.96l22.016-111.616C244.736 58.368 285.184 25.6 331.264 25.6h361.472c46.08 0 86.528 32.768 95.232 78.336l22.016 111.616c3.584 18.944-8.704 37.376-27.136 40.96-18.944 3.584-37.376-8.704-40.96-27.136L719.872 117.76c-2.56-12.8-13.824-22.016-27.136-22.016H331.264c-13.312 0-24.576 9.216-27.136 22.016l-22.016 111.616c-3.584 16.384-17.92 27.648-34.304 27.648zM387.584 837.12c-19.456 0-34.816-15.36-34.816-34.816V366.592c0-19.456 15.36-34.816 34.816-34.816s34.816 15.36 34.816 34.816v435.712c0 19.456-15.36 34.816-34.816 34.816zM636.416 837.12c-19.456 0-34.816-15.36-34.816-34.816V366.592c0-19.456 15.36-34.816 34.816-34.816s34.816 15.36 34.816 34.816v435.712c0 19.456-15.872 34.816-34.816 34.816z"
    p-id="12524"></path>
</svg>