<svg t="1642035693959" class="icon" viewBox="0 0 1024 1024" version="1.1" xmlns="http://www.w3.org/2000/svg" p-id="3234"
  width="128" height="128">
  <path
    d="M846.336 998.4H177.664C93.696 998.4 25.6 930.304 25.6 846.336V177.664C25.6 93.696 93.696 25.6 177.664 25.6h419.328c19.968 0 36.352 16.384 36.352 36.352s-16.384 36.352-36.352 36.352H177.664c-43.52 0-78.848 35.328-78.848 78.848v668.672c0 43.52 35.328 78.848 78.848 78.848h668.672c43.52 0 78.848-35.328 78.848-78.848v-337.92c0-19.968 16.384-36.352 36.352-36.352s36.352 16.384 36.352 36.352v337.92c0.512 84.48-67.584 152.576-151.552 152.576z"
    p-id="3235"></path>
  <path
    d="M396.288 698.88c-9.216 0-18.432-3.584-25.6-10.752-14.336-14.336-14.336-37.376 0-51.712L891.904 115.2c14.336-14.336 37.376-14.336 51.712 0s14.336 37.376 0 51.712L421.888 688.128c-7.168 7.168-16.384 10.752-25.6 10.752z"
    p-id="3236"></path>
</svg>