<?xml version="1.0" standalone="no"?><!DOCTYPE svg PUBLIC "-//W3C//DTD SVG 1.1//EN" "http://www.w3.org/Graphics/SVG/1.1/DTD/svg11.dtd"><svg t="1671249477796" class="icon" viewBox="0 0 1024 1024" version="1.1" xmlns="http://www.w3.org/2000/svg" p-id="28263" xmlns:xlink="http://www.w3.org/1999/xlink" width="200" height="200"><path d="M868.9152 42.3936H155.2896a112.896 112.896 0 0 0-112.64 112.64v214.2208a33.4336 33.4336 0 0 0 66.816 0v-183.808a76.1856 76.1856 0 0 1 75.9808-76.0832h653.4656a76.1856 76.1856 0 0 1 76.1344 76.0832v653.3632a76.1856 76.1856 0 0 1-76.1344 76.0832H185.4464a76.1856 76.1856 0 0 1-76.1344-76.0832v-166.912a33.4336 33.4336 0 0 0-66.56 0v196.9152a112.896 112.896 0 0 0 112.64 112.64h713.5232a112.9472 112.9472 0 0 0 112.64-112.64V155.3408a112.64 112.64 0 0 0-112.64-112.9472z" p-id="28264"></path><path d="M75.6736 555.3152h491.2128L435.2 687.0528a33.6384 33.6384 0 0 0 23.808 57.3952 33.2288 33.2288 0 0 0 23.7568-9.8304l188.928-188.8768a33.6896 33.6896 0 0 0 0-47.5648L482.816 309.248a33.6384 33.6384 0 0 0-47.616 47.5648l131.7376 131.6352H75.6736a33.4336 33.4336 0 0 0 0 66.8672z" p-id="28265"></path></svg>