<svg width="24" height="24" viewBox="0 0 24 24" fill="none" xmlns="http://www.w3.org/2000/svg">
  <path d="M21.5287 15.9294C21.3687 15.6594 20.9187 15.2394 19.7987 15.4394C19.1787 15.5494 18.5487 15.5994 17.9187 15.5694C15.5887 15.4694 13.4787 14.3994 12.0787 12.7494C10.9787 11.4594 10.3087 9.82939 10.1787 8.11939C10.0487 6.49939 10.3987 4.94939 11.1787 3.54939C11.2387 3.43939 11.3787 3.20939 11.1087 2.82939C10.8387 2.44939 10.4887 2.44939 10.2887 2.46939C5.96875 2.98939 2.55875 6.78939 2.10875 11.4294C1.61875 16.4294 5.00875 20.9794 9.92875 21.9294C10.6887 22.0694 11.4587 22.1394 12.2387 22.1394C15.3387 22.1394 18.1787 20.7194 19.9187 18.3594C20.8787 16.9794 21.6987 16.1994 21.5287 15.9294Z" fill="currentColor"/>
</svg> 