<?xml version="1.0" standalone="no"?><!DOCTYPE svg PUBLIC "-//W3C//DTD SVG 1.1//EN" "http://www.w3.org/Graphics/SVG/1.1/DTD/svg11.dtd"><svg t="1690255631164" class="icon" viewBox="0 0 1024 1024" version="1.1" xmlns="http://www.w3.org/2000/svg" p-id="22553" xmlns:xlink="http://www.w3.org/1999/xlink" width="200" height="200"><path d="M968.710397 109.665328H54.832664C23.760821 109.665328 0 85.904507 0 54.832664s23.760821-54.832664 54.832664-54.832664h913.877733c31.071843 0 54.832664 23.760821 54.832664 54.832664s-23.760821 54.832664-54.832664 54.832664zM840.767515 409.417224H182.775547c-31.071843 0-54.832664-23.760821-54.832664-54.832664s23.760821-54.832664 54.832664-54.832664h657.991968c31.071843 0 54.832664 23.760821 54.832663 54.832664s-23.760821 54.832664-54.832663 54.832664zM546.498884 1003.437751L753.035252 639.714413c14.622044-25.588577-3.655511-58.488175-34.727354-58.488175H303.407407c-29.244087 0-49.349398 32.899598-34.727353 58.488175l208.364123 363.723338c16.449799 27.416332 53.004909 27.416332 69.454707 0z" p-id="22554"></path></svg>