<svg width="24" height="24" viewBox="0 0 24 24" fill="none" xmlns="http://www.w3.org/2000/svg">
  <path d="M12 17C14.7614 17 17 14.7614 17 12C17 9.23858 14.7614 7 12 7C9.23858 7 7 9.23858 7 12C7 14.7614 9.23858 17 12 17Z" fill="currentColor"/>
  <path d="M12 3.5C12.2761 3.5 12.5 3.27614 12.5 3V2C12.5 1.72386 12.2761 1.5 12 1.5C11.7239 1.5 11.5 1.72386 11.5 2V3C11.5 3.27614 11.7239 3.5 12 3.5Z" fill="currentColor"/>
  <path d="M12 20.5C11.7239 20.5 11.5 20.7239 11.5 21V22C11.5 22.2761 11.7239 22.5 12 22.5C12.2761 22.5 12.5 22.2761 12.5 22V21C12.5 20.7239 12.2761 20.5 12 20.5Z" fill="currentColor"/>
  <path d="M21.5 11.5H22.5C22.7761 11.5 23 11.7239 23 12C23 12.2761 22.7761 12.5 22.5 12.5H21.5C21.2239 12.5 21 12.2761 21 12C21 11.7239 21.2239 11.5 21.5 11.5Z" fill="currentColor"/>
  <path d="M3.5 11.5H2.5C2.22386 11.5 2 11.7239 2 12C2 12.2761 2.22386 12.5 2.5 12.5H3.5C3.77614 12.5 4 12.2761 4 12C4 11.7239 3.77614 11.5 3.5 11.5Z" fill="currentColor"/>
  <path d="M18.0962 4.95231L18.8033 4.24521C19.0042 4.04432 19.0042 3.72135 18.8033 3.52046C18.6024 3.31957 18.2794 3.31957 18.0785 3.52046L17.3714 4.22757C17.1705 4.42846 17.1705 4.75143 17.3714 4.95231C17.5723 5.1532 17.8953 5.1532 18.0962 4.95231Z" fill="currentColor"/>
  <path d="M5.90485 17.0479L5.19775 17.7551C4.99686 17.956 4.99686 18.2789 5.19775 18.4798C5.39864 18.6807 5.72161 18.6807 5.9225 18.4798L6.6296 17.7727C6.83049 17.5718 6.83049 17.2489 6.6296 17.048C6.42871 16.8471 6.10574 16.8471 5.90485 17.0479Z" fill="currentColor"/>
  <path d="M17.3714 19.0481C17.5723 19.249 17.8953 19.249 18.0962 19.0481L18.8033 18.341C19.0042 18.1401 19.0042 17.8171 18.8033 17.6162C18.6024 17.4153 18.2794 17.4153 18.0785 17.6162L17.3714 18.3233C17.1705 18.5242 17.1705 18.8472 17.3714 19.0481Z" fill="currentColor"/>
  <path d="M6.6296 6.22767L5.9225 5.52056C5.72161 5.31967 5.39864 5.31967 5.19775 5.52056C4.99686 5.72145 4.99686 6.04442 5.19775 6.24531L5.90485 6.95241C6.10574 7.1533 6.42871 7.1533 6.6296 6.95241C6.83049 6.75152 6.83049 6.42856 6.6296 6.22767Z" fill="currentColor"/>
</svg> 